<svg t="1721809490777" class="icon" viewBox="0 0 1089 1024" version="1.1" xmlns="http://www.w3.org/2000/svg" p-id="1808" width="16" height="16"><path d="M922.370188 365.970598c-52.022701-110.653265-143.412513-162.461538-228.352-146.799589-106.937983 20.685675-182.525812 128.113778-204.252991 250.809982-62.245197 29.16212-103.651556 93.477197-108.228923 164.837744-5.360684 91.998085 51.637607 180.022701 139.228991 197.155009l318.744068 55.628581c99.380513 20.038017 206.130325-94.715624 212.611282-257.544752 5.395692-124.643556-53.156103-233.677675-129.750427-264.086975z" fill="#91C6E8" p-id="1809"></path><path d="M735.884034 272.957265c-68.358564-143.596308-182.92841-202.275009-277.569641-174.780171-119.624205 36.303863-191.107282 174.009983-212.790701 319.75494-70.38906 36.697709-116.683487 110.972718-124.809846 192.647658-9.290393 104.776205 45.32294 212.396855 143.180581 242.473573l357.669197 97.844513c110.486974 35.284239 254.223316-109.786803 267.824137-329.027829 11.16335-167.310222-63.282325-312.516923-153.503727-348.912684z" fill="#98D0F5" opacity=".8" p-id="1810"></path><path d="M589.360137 380.17094C531.035897 257.65853 433.283282 207.596308 352.540444 231.047658 250.473026 262.02147 189.483761 379.51453 170.98612 503.864889c-60.057162 31.310769-99.555556 94.684991-106.482872 164.369504-7.929436 89.398701 38.66694 181.221744 122.157949 206.878633l305.165128 83.486632c94.269265 30.102974 216.899829-93.678496 228.509538-280.733538 9.517949-142.742974-53.996308-266.638222-130.975726-297.69518z" fill="#9FDAFF" p-id="1811"></path></svg>